<svg width="15" height="15" viewBox="0 0 15 15" fill="none" xmlns="http://www.w3.org/2000/svg">
<path d="M0.487793 3.01598C0.487793 1.72 1.5396 0.668194 2.83558 0.668194H11.6632C12.9592 0.668194 14.011 1.72 14.011 3.01598V3.67336H0.487793V3.01598ZM0.487793 4.61247V11.8436C0.487793 13.1396 1.5396 14.1914 2.83558 14.1914H11.6632C12.9592 14.1914 14.011 13.1396 14.011 11.8436V4.61247H0.487793ZM4.99554 7.24199C4.99554 7.49106 4.8966 7.72993 4.72048 7.90604C4.54436 8.08216 4.30549 8.1811 4.05643 8.1811C3.80736 8.1811 3.56849 8.08216 3.39237 7.90604C3.21625 7.72993 3.11731 7.49106 3.11731 7.24199C3.11731 6.99292 3.21625 6.75406 3.39237 6.57794C3.56849 6.40182 3.80736 6.30288 4.05643 6.30288C4.30549 6.30288 4.54436 6.40182 4.72048 6.57794C4.8966 6.75406 4.99554 6.99292 4.99554 7.24199ZM7.24941 8.1811C7.00034 8.1811 6.76148 8.08216 6.58536 7.90604C6.40924 7.72993 6.3103 7.49106 6.3103 7.24199C6.3103 6.99292 6.40924 6.75406 6.58536 6.57794C6.76148 6.40182 7.00034 6.30288 7.24941 6.30288C7.49848 6.30288 7.73735 6.40182 7.91347 6.57794C8.08958 6.75406 8.18853 6.99292 8.18853 7.24199C8.18853 7.49106 8.08958 7.72993 7.91347 7.90604C7.73735 8.08216 7.49848 8.1811 7.24941 8.1811ZM11.3815 7.24199C11.3815 7.49106 11.2826 7.72993 11.1065 7.90604C10.9303 8.08216 10.6915 8.1811 10.4424 8.1811C10.1933 8.1811 9.95446 8.08216 9.77835 7.90604C9.60223 7.72993 9.50329 7.49106 9.50329 7.24199C9.50329 6.99292 9.60223 6.75406 9.77835 6.57794C9.95446 6.40182 10.1933 6.30288 10.4424 6.30288C10.6915 6.30288 10.9303 6.40182 11.1065 6.57794C11.2826 6.75406 11.3815 6.99292 11.3815 7.24199ZM4.05643 11.1863C3.80736 11.1863 3.56849 11.0873 3.39237 10.9112C3.21625 10.7351 3.11731 10.4962 3.11731 10.2472C3.11731 9.99809 3.21625 9.75922 3.39237 9.5831C3.56849 9.40698 3.80736 9.30804 4.05643 9.30804C4.30549 9.30804 4.54436 9.40698 4.72048 9.5831C4.8966 9.75922 4.99554 9.99809 4.99554 10.2472C4.99554 10.4962 4.8966 10.7351 4.72048 10.9112C4.54436 11.0873 4.30549 11.1863 4.05643 11.1863ZM8.18853 10.2472C8.18853 10.4962 8.08958 10.7351 7.91347 10.9112C7.73735 11.0873 7.49848 11.1863 7.24941 11.1863C7.00034 11.1863 6.76148 11.0873 6.58536 10.9112C6.40924 10.7351 6.3103 10.4962 6.3103 10.2472C6.3103 9.99809 6.40924 9.75922 6.58536 9.5831C6.76148 9.40698 7.00034 9.30804 7.24941 9.30804C7.49848 9.30804 7.73735 9.40698 7.91347 9.5831C8.08958 9.75922 8.18853 9.99809 8.18853 10.2472Z" fill="white" fill-opacity="0.7"/>
</svg>
