<svg width="17" height="15" viewBox="0 0 17 15" fill="none" xmlns="http://www.w3.org/2000/svg">
<path d="M6.58483 0.924134C5.63719 0.923772 4.70476 1.16242 3.87381 1.618C3.04286 2.07358 2.34024 2.73137 1.83094 3.53052C1.32164 4.32967 1.02212 5.24437 0.960084 6.18998C0.898053 7.13559 1.07552 8.08157 1.47605 8.94041C1.28712 9.72513 1.11678 10.5142 0.965175 11.307C0.942899 11.4259 0.949692 11.5485 0.984975 11.6643C1.02026 11.7801 1.08299 11.8856 1.16783 11.9719C1.25267 12.0582 1.3571 12.1228 1.47224 12.16C1.58739 12.1973 1.70983 12.2062 1.82916 12.186C2.30247 12.1033 3.31672 11.9155 4.26334 11.6976C5.02929 12.0421 5.86257 12.2111 6.70221 12.192C7.54185 12.173 8.36662 11.9666 9.11619 11.5877C9.86575 11.2089 10.5212 10.6673 11.0345 10.0026C11.5477 9.33782 11.906 8.56674 12.0829 7.74573C12.2598 6.92472 12.2509 6.07454 12.0569 5.2574C11.863 4.44025 11.4888 3.6768 10.9617 3.02289C10.4347 2.36898 9.76817 1.84116 9.01088 1.47803C8.25358 1.1149 7.42469 0.925657 6.58483 0.924134ZM6.55478 12.9448C7.36594 13.7022 8.38344 14.202 9.47865 14.3812C10.5739 14.5604 11.6976 14.4109 12.7079 13.9515C13.4892 14.1318 14.3532 14.3121 14.8941 14.4323C15.5703 14.5676 16.1488 13.9665 15.9985 13.3054C15.8783 12.7795 15.683 11.9531 15.4951 11.2018C15.829 10.4869 16.009 9.70991 16.0234 8.92107C16.0379 8.13223 15.8866 7.34914 15.5792 6.6225C15.2718 5.89586 14.8153 5.24187 14.2391 4.70286C13.663 4.16386 12.98 3.75187 12.2345 3.49355C12.4975 3.96686 12.7003 4.47774 12.8356 5.02618C13.7764 5.63336 14.4576 6.56898 14.7465 7.65085C15.0354 8.73272 14.9112 9.88338 14.3983 10.8787L14.3006 11.0666L14.3532 11.2769C14.526 11.9531 14.6988 12.7044 14.834 13.2678L12.7755 12.8096L12.5801 12.757L12.3923 12.8546C11.7369 13.1813 11.0115 13.3425 10.2794 13.3241C9.5473 13.3058 8.83084 13.1085 8.1926 12.7495C7.65737 12.8849 7.10686 12.9506 6.55478 12.9448Z" fill="white" fill-opacity="0.7"/>
</svg>
