<svg width="55" height="55" viewBox="0 0 55 55" fill="none" xmlns="http://www.w3.org/2000/svg">
<path d="M22.8518 29.4028C23.4039 29.3988 23.9381 29.5982 24.3525 29.9629C24.767 30.3276 25.0327 30.8322 25.0989 31.3802V49.6266C25.1347 50.2226 24.9322 50.8083 24.5361 51.255C24.14 51.7017 23.5826 51.9728 22.9866 52.0085C22.3907 52.0443 21.8049 51.8418 21.3582 51.4457C20.9115 51.0496 20.6405 50.4922 20.6047 49.8963V37.0429L4.20097 53.4467C3.79203 53.8268 3.25625 54.041 2.69799 54.0477C2.13973 54.0543 1.59898 53.8529 1.18109 53.4827C0.763192 53.1125 0.498078 52.6 0.437392 52.045C0.376706 51.49 0.524795 50.9323 0.85281 50.4805L1.03258 50.2558L17.4588 33.897H4.8751C4.32304 33.901 3.78883 33.7016 3.37438 33.3369C2.95993 32.9722 2.69425 32.4676 2.62801 31.9196V31.6499C2.62402 31.0978 2.8234 30.5636 3.18812 30.1492C3.55284 29.7347 4.05736 29.469 4.60545 29.4028H22.8518ZM53.637 0.864759C54.0202 1.24843 54.2517 1.75775 54.2889 2.29876C54.3261 2.83977 54.1664 3.37597 53.8392 3.80845L53.6594 4.03316L37.2332 20.4144H49.8169C50.369 20.4105 50.9032 20.6098 51.3176 20.9746C51.7321 21.3393 51.9978 21.8438 52.064 22.3919V22.6615C52.068 23.2136 51.8686 23.7478 51.5039 24.1623C51.1392 24.5767 50.6346 24.8424 50.0866 24.9086H31.8402C31.2881 24.9126 30.7539 24.7132 30.3395 24.3485C29.925 23.9838 29.6593 23.4793 29.5931 22.9312V4.68481C29.5573 4.08885 29.7598 3.50309 30.1559 3.05639C30.552 2.60969 31.1094 2.33866 31.7054 2.3029C32.3013 2.26714 32.8871 2.46959 33.3338 2.86572C33.7805 3.26185 34.0515 3.8192 34.0873 4.41516V17.2685L50.491 0.864759C50.9111 0.453032 51.4758 0.222412 52.064 0.222412C52.6522 0.222412 53.2169 0.453032 53.637 0.864759Z" fill="white"/>
</svg>
