<svg width="27" height="28" viewBox="0 0 27 28" fill="none" xmlns="http://www.w3.org/2000/svg">
<path d="M24.1912 3.04559C23.6447 2.49916 22.9035 2.19219 22.1306 2.19219C21.3578 2.19219 20.6166 2.49916 20.0701 3.04559L18.7856 4.3301L22.9067 8.45118L24.1912 7.16667C24.7376 6.62015 25.0446 5.87896 25.0446 5.10613C25.0446 4.3333 24.7376 3.59211 24.1912 3.04559ZM21.7287 9.6291L17.6077 5.50802L8.28195 14.8337C7.59679 15.5186 7.09312 16.3633 6.81648 17.2917L5.92831 20.2726C5.88543 20.4165 5.88224 20.5692 5.91906 20.7148C5.95588 20.8603 6.03135 20.9931 6.13749 21.0993C6.24363 21.2054 6.37649 21.2809 6.52201 21.3177C6.66752 21.3545 6.82029 21.3513 6.96414 21.3084L9.94503 20.4203C10.8734 20.1436 11.7182 19.64 12.403 18.9548L21.7287 9.6291Z" fill="#EAECF0"/>
<path d="M5.89391 6.35511C5.01057 6.35511 4.16342 6.70601 3.53881 7.33062C2.9142 7.95523 2.56329 8.80239 2.56329 9.68572V21.3429C2.56329 22.2262 2.9142 23.0733 3.53881 23.698C4.16342 24.3226 5.01057 24.6735 5.89391 24.6735H17.551C18.4344 24.6735 19.2815 24.3226 19.9061 23.698C20.5308 23.0733 20.8817 22.2262 20.8817 21.3429V15.5143C20.8817 15.2935 20.7939 15.0817 20.6378 14.9255C20.4816 14.7694 20.2698 14.6816 20.049 14.6816C19.8282 14.6816 19.6164 14.7694 19.4602 14.9255C19.3041 15.0817 19.2164 15.2935 19.2164 15.5143V21.3429C19.2164 21.7845 19.0409 22.2081 18.7286 22.5204C18.4163 22.8327 17.9927 23.0082 17.551 23.0082H5.89391C5.45224 23.0082 5.02866 22.8327 4.71636 22.5204C4.40405 22.2081 4.2286 21.7845 4.2286 21.3429V9.68572C4.2286 9.24405 4.40405 8.82047 4.71636 8.50817C5.02866 8.19586 5.45224 8.02041 5.89391 8.02041H11.7225C11.9433 8.02041 12.1551 7.93269 12.3113 7.77653C12.4674 7.62038 12.5551 7.40859 12.5551 7.18776C12.5551 6.96693 12.4674 6.75514 12.3113 6.59898C12.1551 6.44283 11.9433 6.35511 11.7225 6.35511H5.89391Z" fill="#EAECF0"/>
</svg>
