<svg width="16" height="15" viewBox="0 0 16 15" fill="none" xmlns="http://www.w3.org/2000/svg">
<path d="M0.145508 2.62179C0.145508 2.17346 0.323604 1.7435 0.640616 1.42649C0.957628 1.10948 1.38759 0.931381 1.83591 0.931381H9.72447C10.1728 0.931381 10.6028 1.10948 10.9198 1.42649C11.2368 1.7435 11.4149 2.17346 11.4149 2.62179V8.25647C11.4149 8.70479 11.2368 9.13475 10.9198 9.45177C10.6028 9.76878 10.1728 9.94687 9.72447 9.94687H1.83591C1.38759 9.94687 0.957628 9.76878 0.640616 9.45177C0.323604 9.13475 0.145508 8.70479 0.145508 8.25647V2.62179ZM4.74904 13.3277C4.86562 13.6574 5.08158 13.9428 5.36718 14.1447C5.65278 14.3465 5.99394 14.4548 6.34366 14.4546H9.72447C10.5384 14.4546 11.3444 14.2943 12.0964 13.9828C12.8484 13.6713 13.5317 13.2148 14.1072 12.6392C14.6828 12.0637 15.1393 11.3804 15.4508 10.6284C15.7623 9.87641 15.9226 9.07042 15.9226 8.25647V7.12953C15.9228 6.77982 15.8145 6.43865 15.6127 6.15305C15.4108 5.86746 15.1254 5.65149 14.7957 5.53492V8.25647C14.7957 9.60144 14.2614 10.8913 13.3104 11.8424C12.3593 12.7934 11.0694 13.3277 9.72447 13.3277H4.74904ZM4.08979 12.2007C3.74007 12.2009 3.3989 12.0926 3.11331 11.8908C2.82771 11.689 2.61174 11.4035 2.49517 11.0738H9.72447C10.0944 11.0738 10.4608 11.0009 10.8026 10.8594C11.1444 10.7178 11.455 10.5102 11.7166 10.2486C11.9782 9.98702 12.1858 9.67644 12.3274 9.33462C12.4689 8.9928 12.5418 8.62645 12.5418 8.25647V3.28104C12.8715 3.39762 13.157 3.61358 13.3588 3.89918C13.5606 4.18478 13.6689 4.52594 13.6687 4.87566V8.25647C13.6687 9.30256 13.2532 10.3058 12.5135 11.0455C11.7738 11.7852 10.7706 12.2007 9.72447 12.2007H4.08979Z" fill="white" fill-opacity="0.7"/>
</svg>
