<svg width="65" height="64" viewBox="0 0 65 64" fill="none" xmlns="http://www.w3.org/2000/svg">
<rect x="1.79501" y="1.4884" width="61.0233" height="61.0233" rx="16.3721" fill="#505257" stroke="#626369" stroke-width="2.97674"/>
<path d="M43.0976 20.4573C35.8173 23.9753 28.9279 15.1315 21.4522 18.7472C21.1591 18.8938 21.1102 19.1869 21.1591 19.4312C21.1591 19.529 21.1591 19.5778 21.2079 19.6756C24.2862 28.3728 27.4133 37.0211 30.4915 45.7183C30.7358 46.4512 31.9573 46.1581 31.6641 45.3763C30.4915 42.1026 29.3188 38.7801 28.1462 35.5064C28.195 35.5064 28.195 35.4576 28.2439 35.4576C30.8824 33.3077 33.814 31.5976 36.5014 29.5454C39.4819 27.249 41.876 24.4639 43.9282 21.3368C44.2702 20.7505 43.635 20.213 43.0976 20.4573Z" fill="white"/>
</svg>
