<svg width="56" height="68" viewBox="0 0 56 68" fill="none" xmlns="http://www.w3.org/2000/svg">
<path d="M52.841 6.98476C35.6254 15.3037 19.3342 -5.60918 1.65647 2.94083C0.963228 3.28745 0.847687 3.9807 0.963228 4.5584C0.963228 4.78948 0.963228 4.90502 1.07877 5.1361C8.35783 25.7024 15.7524 46.1531 23.0315 66.7193C23.6092 68.4524 26.4977 67.7592 25.8045 65.9105C23.0315 58.1693 20.2585 50.3125 17.4856 42.5713C17.6011 42.5713 17.6011 42.4558 17.7166 42.4558C23.9558 37.372 30.8883 33.328 37.243 28.4753C44.291 23.0449 49.9525 16.4591 54.8052 9.06449C55.614 7.678 54.112 6.40705 52.841 6.98476Z" fill="currentColor"/>
</svg>
