<svg width="16" height="14" viewBox="0 0 16 14" fill="none" xmlns="http://www.w3.org/2000/svg">
<path d="M6.52623 1.74113C5.70225 1.12047 4.67231 0.838013 3.647 0.951503C2.62169 1.06499 1.67846 1.56586 1.01016 2.35169C0.341872 3.13752 -0.000996262 4.14895 0.0516664 5.17918C0.104329 6.20941 0.548544 7.18061 1.29348 7.8942L7.22868 13.5665C7.41275 13.7392 7.69824 13.7392 7.87855 13.5665L13.8137 7.8942C14.5587 7.18061 15.0029 6.20941 15.0556 5.17918C15.1082 4.14895 14.7654 3.13752 14.0971 2.35169C13.4288 1.56586 12.4855 1.06499 11.4602 0.951503C10.4349 0.838013 9.40498 1.12047 8.58101 1.74113L7.55549 2.51872L6.52623 1.74113Z" fill="currentColor"/>
</svg>
