<svg width="14" height="15" viewBox="0 0 14 15" fill="none" xmlns="http://www.w3.org/2000/svg">
<path d="M6.34897 0.858358C6.60303 0.649568 6.92168 0.535431 7.25052 0.535431C7.57936 0.535431 7.89801 0.649568 8.15207 0.858358L13.0956 4.89279C13.4336 5.16701 13.6327 5.58773 13.6327 6.031V13.3448C13.6347 13.5352 13.5992 13.7242 13.5281 13.9009C13.4571 14.0775 13.3519 14.2385 13.2187 14.3745C13.0854 14.5106 12.9267 14.619 12.7515 14.6937C12.5764 14.7684 12.3882 14.8079 12.1978 14.8098H10.282C9.89807 14.8059 9.5314 14.6498 9.2624 14.3759C8.99339 14.1019 8.84401 13.7325 8.84701 13.3486V9.83253C8.84701 9.56206 8.6329 9.34419 8.36994 9.34419H6.1311C5.86814 9.34419 5.65403 9.56206 5.65403 9.83253V13.3486C5.65703 13.7325 5.50765 14.1019 5.23864 14.3759C4.96964 14.6498 4.60297 14.8059 4.21906 14.8098H2.30327C2.11285 14.8084 1.92459 14.7694 1.74923 14.6952C1.57387 14.6209 1.41486 14.5129 1.28126 14.3772C1.14766 14.2415 1.0421 14.0808 0.970596 13.9043C0.899096 13.7278 0.86306 13.539 0.864546 13.3486V6.031C0.864546 5.58773 1.06364 5.16701 1.40172 4.89279L6.35273 0.858358H6.34897Z" fill="black"/>
</svg>
