<svg width="19" height="19" viewBox="0 0 19 19" fill="none" xmlns="http://www.w3.org/2000/svg">
<path d="M3.24023 4.11687C3.24023 3.18527 3.99153 2.42647 4.93064 2.42647H8.12363V5.9951C8.12363 6.9267 8.88243 7.68551 9.81403 7.68551H13.3827V13.8837C13.3827 14.8153 12.6314 15.5741 11.6923 15.5741H4.93064C3.99904 15.5741 3.24023 14.8228 3.24023 13.8837V4.11687ZM6.05758 9.56373C5.90813 9.56373 5.76481 9.6231 5.65914 9.72877C5.55347 9.83444 5.49411 9.97776 5.49411 10.1272C5.49411 10.2766 5.55347 10.42 5.65914 10.5256C5.76481 10.6313 5.90813 10.6907 6.05758 10.6907C6.20702 10.6907 6.35034 10.6313 6.45601 10.5256C6.56168 10.42 6.62104 10.2766 6.62104 10.1272C6.62104 9.97776 6.56168 9.83444 6.45601 9.72877C6.35034 9.6231 6.20702 9.56373 6.05758 9.56373ZM5.49411 12.3811C5.49411 12.5305 5.55347 12.6738 5.65914 12.7795C5.76481 12.8852 5.90813 12.9445 6.05758 12.9445C6.20702 12.9445 6.35034 12.8852 6.45601 12.7795C6.56168 12.6738 6.62104 12.5305 6.62104 12.3811C6.62104 12.2316 6.56168 12.0883 6.45601 11.9826C6.35034 11.877 6.20702 11.8176 6.05758 11.8176C5.90813 11.8176 5.76481 11.877 5.65914 11.9826C5.55347 12.0883 5.49411 12.2316 5.49411 12.3811ZM7.74798 10.1272C7.74798 10.4352 8.00342 10.6907 8.31145 10.6907H10.6029C10.7523 10.6907 10.8956 10.6313 11.0013 10.5256C11.107 10.42 11.1664 10.2766 11.1664 10.1272C11.1664 9.97776 11.107 9.83444 11.0013 9.72877C10.8956 9.6231 10.7523 9.56373 10.6029 9.56373H8.31145C8.16201 9.56373 8.01869 9.6231 7.91302 9.72877C7.80735 9.83444 7.74798 9.97776 7.74798 10.1272ZM8.31145 11.8176C8.16201 11.8176 8.01869 11.877 7.91302 11.9826C7.80735 12.0883 7.74798 12.2316 7.74798 12.3811C7.74798 12.5305 7.80735 12.6738 7.91302 12.7795C8.01869 12.8852 8.16201 12.9445 8.31145 12.9445H10.6029C10.7523 12.9445 10.8956 12.8852 11.0013 12.7795C11.107 12.6738 11.1664 12.5305 11.1664 12.3811C11.1664 12.2316 11.107 12.0883 11.0013 11.9826C10.8956 11.877 10.7523 11.8176 10.6029 11.8176H8.31145ZM9.25056 5.9951V2.77957L9.41585 2.92232L12.8868 6.39329L13.0371 6.55857H9.81403C9.66459 6.55857 9.52127 6.4992 9.4156 6.39353C9.30993 6.28786 9.25056 6.14454 9.25056 5.9951ZM5.21613 16.3254C5.44152 16.979 6.0726 17.4523 6.80887 17.4523H11.6923C12.1609 17.4523 12.625 17.36 13.0579 17.1806C13.4909 17.0013 13.8843 16.7384 14.2157 16.4071C14.547 16.0757 14.8099 15.6823 14.9892 15.2493C15.1686 14.8163 15.2609 14.3523 15.2609 13.8837V9.46607C15.2609 9.01529 15.0806 8.58706 14.765 8.264L14.134 7.64043V13.8837C14.134 15.236 13.0446 16.3254 11.6923 16.3254H5.21613Z" fill="black"/>
</svg>
