<svg width="50" height="49" viewBox="0 0 50 49" fill="none" xmlns="http://www.w3.org/2000/svg">
<path d="M12.438 30.8211V37.0397M20.7293 24.6026V37.0397M29.0207 18.384V37.0397M37.3121 12.1655V37.0397M8.29227 47.4039H41.4578C43.1071 47.4039 44.6888 46.7487 45.855 45.5825C47.0212 44.4163 47.6763 42.8346 47.6763 41.1853V8.01981C47.6763 6.37055 47.0212 4.78884 45.855 3.62264C44.6888 2.45644 43.1071 1.80127 41.4578 1.80127H8.29227C6.64301 1.80127 5.0613 2.45644 3.8951 3.62264C2.7289 4.78884 2.07373 6.37055 2.07373 8.01981V41.1853C2.07373 42.8346 2.7289 44.4163 3.8951 45.5825C5.0613 46.7487 6.64301 47.4039 8.29227 47.4039Z" stroke="#2F3037" stroke-width="2.7635" stroke-linecap="round" stroke-linejoin="round"/>
</svg>
