<svg width="54" height="55" viewBox="0 0 54 55" fill="none" xmlns="http://www.w3.org/2000/svg">
<path d="M26.7049 0.843262C33.7725 0.843262 40.5506 3.65085 45.5481 8.64838C50.5456 13.6459 53.3532 20.424 53.3532 27.4916C53.3532 34.5592 50.5456 41.3373 45.5481 46.3349C40.5506 51.3324 33.7725 54.14 26.7049 54.14C19.6373 54.14 12.8592 51.3324 7.86164 46.3349C2.8641 41.3373 0.0565186 34.5592 0.0565186 27.4916C0.0565186 20.424 2.8641 13.6459 7.86164 8.64838C12.8592 3.65085 19.6373 0.843262 26.7049 0.843262ZM27.038 38.151C26.5079 38.151 25.9996 38.3615 25.6247 38.7363C25.2499 39.1112 25.0394 39.6195 25.0394 40.1496C25.0394 40.6797 25.2499 41.188 25.6247 41.5628C25.9996 41.9376 26.5079 42.1482 27.038 42.1482C27.568 42.1482 28.0764 41.9376 28.4512 41.5628C28.826 41.188 29.0366 40.6797 29.0366 40.1496C29.0366 39.6195 28.826 39.1112 28.4512 38.7363C28.0764 38.3615 27.568 38.151 27.038 38.151ZM27.038 12.835C24.8422 12.876 22.7478 13.7665 21.1948 15.3195C19.6419 16.8724 18.7514 18.9668 18.7104 21.1626C18.7173 21.5703 18.8737 21.9613 19.1497 22.2615C19.4257 22.5617 19.8022 22.7501 20.2079 22.7912C20.6136 22.8323 21.0203 22.7231 21.3509 22.4843C21.6814 22.2455 21.9129 21.8938 22.0014 21.4957L22.0281 21.3358L22.0547 20.9095C22.1587 19.6451 22.7239 18.4631 23.6428 17.5885C24.5616 16.7138 25.7701 16.2076 27.038 16.1661C28.3504 16.2062 29.5982 16.7455 30.5267 17.674C31.4551 18.6024 31.9944 19.8502 32.0345 21.1626C32.0345 22.7482 31.4749 23.8808 29.876 25.6929L29.6095 25.9993L28.2372 27.465C26.052 29.8233 25.1459 31.4489 25.1593 33.8339C25.1692 34.2274 25.318 34.6046 25.5795 34.8987C25.841 35.1928 26.1982 35.3849 26.5878 35.4407C26.9774 35.4966 27.3741 35.4127 27.7077 35.204C28.0414 34.9952 28.2903 34.6751 28.4104 34.3003L28.4503 34.1404L28.477 33.9805V33.8073L28.4903 33.5941C28.5436 32.5282 29.0233 31.6088 30.1958 30.263L30.449 29.9699L31.7947 28.5309C34.3396 25.7861 35.3656 23.9874 35.3656 21.1626C35.3279 18.9658 34.4384 16.8694 32.8848 15.3158C31.3312 13.7622 29.2348 12.8727 27.038 12.835Z" fill="#100C20"/>
</svg>
