<svg width="45" height="45" viewBox="0 0 45 45" fill="none" xmlns="http://www.w3.org/2000/svg">
<path fill-rule="evenodd" clip-rule="evenodd" d="M22.4095 44.1545C28.25 44.1545 33.8513 41.8344 37.9811 37.7046C42.1109 33.5747 44.431 27.9735 44.431 22.133C44.431 16.2926 42.1109 10.6913 37.9811 6.56149C33.8513 2.43166 28.25 0.111542 22.4095 0.111542C16.5691 0.111542 10.9678 2.43166 6.83801 6.56149C2.70818 10.6913 0.388062 16.2926 0.388062 22.133C0.388062 27.9735 2.70818 33.5747 6.83801 37.7046C10.9678 41.8344 16.5691 44.1545 22.4095 44.1545ZM18.8503 14.6815C18.3312 14.1801 17.6358 13.9026 16.9141 13.9089C16.1923 13.9152 15.5019 14.2047 14.9916 14.715C14.4812 15.2254 14.1917 15.9158 14.1854 16.6376C14.1791 17.3593 14.4566 18.0546 14.958 18.5738L18.5173 22.133L14.958 25.6922C14.6951 25.9462 14.4854 26.2499 14.3411 26.5858C14.1969 26.9216 14.1209 27.2828 14.1178 27.6483C14.1146 28.0138 14.1842 28.3763 14.3226 28.7146C14.4611 29.0529 14.6654 29.3602 14.9239 29.6187C15.1824 29.8771 15.4897 30.0815 15.828 30.2199C16.1663 30.3583 16.5288 30.428 16.8943 30.4248C17.2598 30.4216 17.621 30.3457 17.9568 30.2014C18.2927 30.0572 18.5964 29.8475 18.8503 29.5845L22.4095 26.0253L25.9688 29.5845C26.4879 30.086 27.1833 30.3634 27.905 30.3572C28.6268 30.3509 29.3172 30.0614 29.8275 29.551C30.3379 29.0406 30.6274 28.3502 30.6337 27.6285C30.6399 26.9067 30.3625 26.2114 29.8611 25.6922L26.3018 22.133L29.8611 18.5738C30.3625 18.0546 30.6399 17.3593 30.6337 16.6376C30.6274 15.9158 30.3379 15.2254 29.8275 14.715C29.3172 14.2047 28.6268 13.9152 27.905 13.9089C27.1833 13.9026 26.4879 14.1801 25.9688 14.6815L22.4095 18.2407L18.8503 14.6815Z" fill="#EF4444"/>
</svg>
