<svg width="41" height="42" viewBox="0 0 41 42" fill="none" xmlns="http://www.w3.org/2000/svg">
<path d="M20.493 41.2817C16.4385 41.2817 12.4751 40.0794 9.10386 37.8268C5.73265 35.5742 3.10512 32.3726 1.55352 28.6267C0.00192431 24.8808 -0.404044 20.7589 0.386953 16.7823C1.17795 12.8057 3.13039 9.15297 5.99736 6.286C8.86434 3.41902 12.5171 1.46659 16.4937 0.675588C20.4703 -0.115409 24.5922 0.29056 28.3381 1.84216C32.0839 3.39375 35.2856 6.02129 37.5382 9.3925C39.7907 12.7637 40.993 16.7272 40.993 20.7817C40.993 26.2186 38.8332 31.4329 34.9887 35.2774C31.1442 39.1219 25.93 41.2817 20.493 41.2817ZM20.493 4.38169C17.2494 4.38169 14.0787 5.34353 11.3817 7.14558C8.68473 8.94764 6.5827 11.509 5.34143 14.5057C4.10015 17.5024 3.77538 20.7999 4.40817 23.9812C5.04097 27.1625 6.60292 30.0847 8.8965 32.3782C11.1901 34.6718 14.1123 36.2338 17.2936 36.8666C20.4749 37.4994 23.7723 37.1746 26.7691 35.9333C29.7658 34.692 32.3271 32.59 34.1291 29.893C35.9312 27.1961 36.893 24.0253 36.893 20.7817C36.893 16.4321 35.1652 12.2607 32.0896 9.18513C29.014 6.10954 24.8426 4.38169 20.493 4.38169Z" fill="white"/>
</svg>
