<svg width="45" height="45" viewBox="0 0 45 45" fill="none" xmlns="http://www.w3.org/2000/svg">
<path fill-rule="evenodd" clip-rule="evenodd" d="M22.4086 44.5474C28.249 44.5474 33.8503 42.2273 37.9801 38.0974C42.1099 33.9676 44.4301 28.3664 44.4301 22.5259C44.4301 16.6854 42.1099 11.0842 37.9801 6.95435C33.8503 2.82452 28.249 0.50441 22.4086 0.50441C16.5681 0.50441 10.9669 2.82452 6.83703 6.95435C2.7072 11.0842 0.387085 16.6854 0.387085 22.5259C0.387085 28.3664 2.7072 33.9676 6.83703 38.0974C10.9669 42.2273 16.5681 44.5474 22.4086 44.5474ZM32.6128 18.9667C33.1142 18.4475 33.3917 17.7522 33.3854 17.0304C33.3791 16.3087 33.0896 15.6183 32.5792 15.1079C32.0689 14.5975 31.3785 14.308 30.6567 14.3018C29.935 14.2955 29.2396 14.573 28.7205 15.0744L19.6559 24.139L16.0967 20.5797C15.5775 20.0783 14.8822 19.8009 14.1604 19.8071C13.4387 19.8134 12.7483 20.1029 12.2379 20.6133C11.7275 21.1236 11.438 21.8141 11.4318 22.5358C11.4255 23.2575 11.7029 23.9529 12.2044 24.472L17.7097 29.9774C18.2259 30.4935 18.926 30.7834 19.6559 30.7834C20.3858 30.7834 21.0858 30.4935 21.602 29.9774L32.6128 18.9667Z" fill="#10B981"/>
</svg>
