<svg width="13" height="14" viewBox="0 0 13 14" fill="none" xmlns="http://www.w3.org/2000/svg">
<path d="M0.115295 3.15021C0.115295 1.87955 1.14594 0.855965 2.40954 0.855965H10.5276C11.7983 0.855965 12.8219 1.88661 12.8219 3.15021V11.2683C12.8219 12.539 11.7912 13.5625 10.5276 13.5625H2.40954C1.80107 13.5625 1.21752 13.3208 0.787264 12.8906C0.35701 12.4603 0.115295 11.8768 0.115295 11.2683V3.15021ZM6.82155 5.26797C6.82155 5.5574 7.06156 5.79741 7.35099 5.79741H9.82171C9.96213 5.79741 10.0968 5.74163 10.1961 5.64234C10.2954 5.54305 10.3512 5.40839 10.3512 5.26797C10.3512 5.12756 10.2954 4.99289 10.1961 4.8936C10.0968 4.79431 9.96213 4.73853 9.82171 4.73853H7.35099C7.21057 4.73853 7.07591 4.79431 6.97662 4.8936C6.87733 4.99289 6.82155 5.12756 6.82155 5.26797ZM7.35099 8.6211C7.21057 8.6211 7.07591 8.67688 6.97662 8.77617C6.87733 8.87546 6.82155 9.01012 6.82155 9.15054C6.82155 9.29095 6.87733 9.42562 6.97662 9.52491C7.07591 9.6242 7.21057 9.67998 7.35099 9.67998H9.82171C9.96213 9.67998 10.0968 9.6242 10.1961 9.52491C10.2954 9.42562 10.3512 9.29095 10.3512 9.15054C10.3512 9.01012 10.2954 8.87546 10.1961 8.77617C10.0968 8.67688 9.96213 8.6211 9.82171 8.6211H7.35099ZM5.60736 4.93619C5.65938 4.88772 5.7011 4.82927 5.73004 4.76432C5.75897 4.69938 5.77453 4.62927 5.77579 4.55818C5.77704 4.4871 5.76397 4.41648 5.73734 4.35056C5.71071 4.28463 5.67108 4.22475 5.6208 4.17447C5.57053 4.1242 5.51064 4.08456 5.44472 4.05794C5.37879 4.03131 5.30818 4.01823 5.23709 4.01949C5.166 4.02074 5.09589 4.0363 5.03095 4.06524C4.96601 4.09417 4.90756 4.1359 4.85909 4.18791L3.82138 5.22562L3.4896 4.89383C3.38923 4.80031 3.25649 4.7494 3.11933 4.75182C2.98217 4.75424 2.8513 4.8098 2.7543 4.90681C2.65729 5.00381 2.60173 5.13468 2.59931 5.27184C2.59689 5.409 2.6478 5.54175 2.74132 5.64211L3.44724 6.34803C3.65902 6.55981 3.9908 6.55981 4.19552 6.34803L5.60736 4.93619ZM5.60736 8.07048C5.50809 7.97133 5.37353 7.91564 5.23322 7.91564C5.09292 7.91564 4.95836 7.97133 4.85909 8.07048L3.82138 9.10818L3.4896 8.7764C3.38923 8.68288 3.25649 8.63197 3.11933 8.63439C2.98217 8.63681 2.8513 8.69237 2.7543 8.78937C2.65729 8.88638 2.60173 9.01724 2.59931 9.1544C2.59689 9.29157 2.6478 9.42431 2.74132 9.52468L3.44724 10.2306C3.65902 10.4424 3.9908 10.4424 4.19552 10.2306L5.60736 8.81875C5.81914 8.60698 5.81914 8.2752 5.60736 8.07048Z" fill="#C8C9CE"/>
</svg>
