<svg width="17" height="15" viewBox="0 0 17 15" fill="none" xmlns="http://www.w3.org/2000/svg">
<path d="M8.77999 3.76086V7.12878L11.5785 8.8077C11.7194 8.89236 11.821 9.02955 11.8608 9.18909C11.9006 9.34862 11.8754 9.51744 11.7907 9.6584C11.7061 9.79936 11.5689 9.90092 11.4094 9.94073C11.2498 9.98054 11.081 9.95534 10.94 9.87068L7.84096 8.01124C7.74924 7.95613 7.67335 7.87822 7.62067 7.78508C7.56799 7.69194 7.54032 7.58675 7.54035 7.47975V3.76086C7.54035 3.59647 7.60566 3.43882 7.72189 3.32258C7.83813 3.20634 7.99579 3.14104 8.16017 3.14104C8.32456 3.14104 8.48221 3.20634 8.59845 3.32258C8.71468 3.43882 8.77999 3.59647 8.77999 3.76086ZM15.598 1.90141C15.4336 1.90141 15.2759 1.96671 15.1597 2.08295C15.0434 2.19919 14.9781 2.35684 14.9781 2.52123V3.91581C14.4862 3.34558 13.9841 2.79627 13.4193 2.22449C12.3856 1.19072 11.0703 0.484482 9.63752 0.194018C8.20478 -0.0964455 6.71821 0.0417475 5.36355 0.591329C4.0089 1.14091 2.84624 2.07751 2.02085 3.2841C1.19546 4.49068 0.743939 5.91375 0.722709 7.37549C0.701478 8.83723 1.11148 10.2728 1.90148 11.5029C2.69148 12.7329 3.82645 13.7029 5.16457 14.2916C6.50269 14.8803 7.98462 15.0616 9.42519 14.8128C10.8658 14.5641 12.2011 13.8964 13.2643 12.8931C13.3236 12.8371 13.3712 12.77 13.4045 12.6957C13.4378 12.6213 13.4561 12.5411 13.4584 12.4597C13.4607 12.3782 13.4469 12.2971 13.4179 12.221C13.3888 12.1449 13.3451 12.0752 13.2891 12.016C13.2332 11.9568 13.1661 11.9092 13.0917 11.8759C13.0174 11.8426 12.9372 11.8243 12.8558 11.822C12.7743 11.8197 12.6932 11.8334 12.6171 11.8625C12.541 11.8915 12.4713 11.9353 12.4121 11.9912C11.5258 12.8265 10.4131 13.3821 9.21287 13.5888C8.01266 13.7954 6.77817 13.6439 5.66356 13.1532C4.54895 12.6624 3.60361 11.8542 2.9456 10.8294C2.28758 9.80459 1.94605 8.60865 1.96366 7.39092C1.98126 6.17318 2.35722 4.98761 3.04458 3.98227C3.73194 2.97692 4.70025 2.19635 5.82858 1.73802C6.95691 1.2797 8.19526 1.16394 9.38899 1.40519C10.5827 1.64645 11.6789 2.23403 12.5407 3.09456C13.1714 3.73297 13.7238 4.34813 14.2808 5.00049H12.4989C12.3345 5.00049 12.1768 5.06579 12.0606 5.18203C11.9444 5.29827 11.8791 5.45592 11.8791 5.6203C11.8791 5.78469 11.9444 5.94234 12.0606 6.05858C12.1768 6.17482 12.3345 6.24012 12.4989 6.24012H15.598C15.7623 6.24012 15.92 6.17482 16.0362 6.05858C16.1525 5.94234 16.2178 5.78469 16.2178 5.6203V2.52123C16.2178 2.35684 16.1525 2.19919 16.0362 2.08295C15.92 1.96671 15.7623 1.90141 15.598 1.90141Z" fill="#B9BABC"/>
</svg>
