<svg width="72" height="71" viewBox="0 0 72 71" fill="none" xmlns="http://www.w3.org/2000/svg">
<g clip-path="url(#clip0_975_1763)">
<path d="M18.0673 11.8334H47.6506L59.484 23.6667V53.25C59.484 54.8192 58.8606 56.3242 57.751 57.4338C56.6414 58.5433 55.1365 59.1667 53.5673 59.1667H18.0673C16.4981 59.1667 14.9932 58.5433 13.8836 57.4338C12.774 56.3242 12.1506 54.8192 12.1506 53.25V17.75C12.1506 16.1808 12.774 14.6759 13.8836 13.5663C14.9932 12.4567 16.4981 11.8334 18.0673 11.8334Z" stroke="white" stroke-width="4.4375" stroke-linecap="round" stroke-linejoin="round"/>
<path d="M29.9006 41.4167C29.9006 42.9859 30.524 44.4908 31.6336 45.6004C32.7432 46.71 34.2481 47.3333 35.8173 47.3333C37.3865 47.3333 38.8914 46.71 40.001 45.6004C41.1106 44.4908 41.734 42.9859 41.734 41.4167C41.734 39.8475 41.1106 38.3425 40.001 37.233C38.8914 36.1234 37.3865 35.5 35.8173 35.5C34.2481 35.5 32.7432 36.1234 31.6336 37.233C30.524 38.3425 29.9006 39.8475 29.9006 41.4167Z" stroke="white" stroke-width="4.4375" stroke-linecap="round" stroke-linejoin="round"/>
<path d="M41.7253 11.8334V23.6667H23.9753V11.8334" stroke="white" stroke-width="4.4375" stroke-linecap="round" stroke-linejoin="round"/>
</g>
<defs>
<clipPath id="clip0_975_1763">
<rect width="71" height="71" fill="white" transform="translate(0.312988)"/>
</clipPath>
</defs>
</svg>
