<svg width="93" height="37" viewBox="0 0 93 37" fill="none" xmlns="http://www.w3.org/2000/svg">
<path d="M17.2247 0.185584C19.9634 0.185584 21.8068 2.39762 21.2801 5.18899L20.1741 11.1404H13.6433L14.4334 6.87434C14.5387 6.295 14.17 5.821 13.5907 5.821H13.1693C12.59 5.821 12.0107 6.295 11.8527 6.87434L11.5367 8.66503C10.1673 14.7218 16.5401 16.6178 17.6461 19.8305C17.6461 19.8832 17.6987 19.8832 17.6987 19.9359C17.6987 19.9885 17.6987 20.0412 17.6987 20.0412C17.6987 20.0939 17.7514 20.1465 17.7514 20.1465C17.7514 20.1992 17.7514 20.2519 17.7514 20.2519C17.7514 20.3572 17.8041 20.4625 17.8041 20.5679C17.8041 20.5679 17.8041 20.6205 17.8567 20.6732C17.8567 20.7259 17.8567 20.7259 17.8567 20.7785C17.8567 20.7785 17.8567 20.8312 17.8567 20.8839C17.8567 20.8839 17.8567 20.9365 17.8567 20.9892C17.9094 21.0419 17.9094 21.0945 17.9094 21.1472C17.9094 21.1472 17.9094 21.1999 17.9094 21.2525C18.0147 22.0952 17.9094 22.6746 17.9094 22.7799C17.9094 22.8326 17.9094 22.8326 17.9094 22.8326C17.9094 23.0432 17.8567 23.2539 17.8041 23.4646L16.224 31.9967C15.6974 34.7881 13.0113 37.0001 10.2726 37.0001H4.68989C1.89852 37.0001 0.107828 34.7881 0.634502 31.9967L2.00385 24.6759L4.21588 22.8326H8.85061L7.69193 28.8893C7.5866 29.4687 8.00794 29.9427 8.58728 29.9427H9.00862C9.58796 29.9427 10.1673 29.4687 10.2726 28.8893L10.9573 25.3079C12.0107 19.5672 2.84653 19.3565 4.68989 10.5611L5.69057 5.18899C6.21725 2.39762 8.90328 0.185584 11.642 0.185584H17.2247ZM33.9989 0.185584H40.5296L33.5775 37.0001H28.4161L28.7848 35.1041C28.1001 35.9467 27.1521 36.6314 26.1514 37.0001H22.4647C22.3594 37.0001 22.2541 37.0001 22.1487 37.0001C19.568 36.8421 17.9353 34.6827 18.4093 31.9967L24.4661 0.185584H30.9442L25.7828 27.6253C25.6248 28.468 26.1514 29.1 26.9941 29.1C27.8368 29.1 28.6795 28.468 28.8375 27.6253L33.9989 0.185584ZM56.7368 0.65959C58.2641 1.50227 59.0542 3.18763 58.6855 5.18899L56.6315 16.0911C56.2628 18.0925 54.7881 19.8305 52.9447 20.6205C52.5761 20.7785 52.1547 20.9365 51.7334 20.9892H46.4667L43.4119 37.0001H36.8812L39.9359 20.9892L43.886 0.132917H54.6301C55.4201 0.132917 56.1575 0.343587 56.7368 0.65959ZM50.522 13.6684L51.7861 7.03235C51.9441 6.08433 51.3121 5.34699 50.4167 5.34699H49.0474L47.1513 15.3538H48.5207C49.4687 15.3538 50.364 14.5638 50.522 13.6684ZM73.7718 6.453H64.7657L66.451 8.29636L65.661 12.6678H71.0858L70.1378 17.7765L67.0831 20.3572H64.1863L62.2903 30.364H69.2424L67.9784 37.0001H54.4955L61.5003 0.132917H74.9832L73.7718 6.453ZM86.7263 16.1965L86.463 37.0001H80.8276L80.9329 32.0494L81.0909 19.2512L76.4035 32.0494L74.5602 37.0001H68.9774L76.6142 16.1965L76.8249 0.132917H82.4076V0.343587L82.2496 13.1418L86.937 0.343587L86.9897 0.132917H92.5724L86.7263 16.1965Z" fill="white"/>
</svg>
